<?xml version="1.0" encoding="utf-8"?>
<!-- Generator: Adobe Illustrator 27.5.0, SVG Export Plug-In . SVG Version: 6.00 Build 0)  -->
<svg version="1.1" id="Layer_1" xmlns="http://www.w3.org/2000/svg" xmlns:xlink="http://www.w3.org/1999/xlink" x="0px" y="0px"
	 viewBox="0 0 512 512" style="enable-background:new 0 0 512 512;" xml:space="preserve">
<path d="M0,448c0,35.35,28.65,64,64,64h384c35.35,0,64-28.65,64-64V64c0-35.35-28.65-64-64-64H64C28.65,0,0,28.65,0,64V448z
	 M144,240h185.38l-68.7-68.67c-6.26-6.26-6.26-16.4,0-22.66s16.4-6.26,22.66,0l96,96c6.26,6.24,6.27,16.37,0.03,22.63
	c-0.01,0.01-0.02,0.02-0.03,0.03l-96,96c-6.26,6.26-16.4,6.26-22.66,0s-6.26-16.4,0-22.66l68.7-68.67H144c-8.84,0-16-7.16-16-16
	C128,247.16,135.16,240,144,240z"/>
</svg>
